HIERARCHY
ROOT hip
{
  OFFSET 0 0 0
  CHANNELS 6 Xposition Yposition Zposition Zrotation Yrotation Xrotation
  JOINT abdomen
  {
    OFFSET 0 20.6881 -0.73152
    CHANNELS 3 Zrotation Xrotation Yrotation
    JOINT chest
    {
      OFFSET 0 11.7043 -0.48768
      CHANNELS 3 Zrotation Xrotation Yrotation
      JOINT neck
      {
        OFFSET 0 22.1894 -2.19456
        CHANNELS 3 Zrotation Xrotation Yrotation
        JOINT head
        {
          OFFSET -0.24384 7.07133 1.2192
          CHANNELS 3 Zrotation Xrotation Yrotation
          JOINT leftEye
          {
            OFFSET 4.14528 8.04674 8.04672
            CHANNELS 3 Zrotation Xrotation Yrotation
            End Site
            {
              OFFSET 1 0 0
            }
          }
          JOINT rightEye
          {
            OFFSET -3.6576 8.04674 8.04672
            CHANNELS 3 Zrotation Xrotation Yrotation
            End Site
            {
              OFFSET 1 0 0
            }
          }
        }
      }
      JOINT rCollar
      {
        OFFSET -2.68224 19.2634 -4.8768
        CHANNELS 3 Zrotation Xrotation Yrotation
        JOINT rShldr
        {
          OFFSET -8.77824 -1.95073 1.46304
          CHANNELS 3 Zrotation Xrotation Yrotation
          JOINT rForeArm
          {
            OFFSET -28.1742 -1.7115 0.48768
            CHANNELS 3 Zrotation Xrotation Yrotation
            JOINT rHand
            {
              OFFSET -22.5879 0.773209 7.07136
              CHANNELS 3 Zrotation Xrotation Yrotation
              JOINT rThumb1
              {
                OFFSET -1.2192 -0.487915 3.41376
                CHANNELS 3 Zrotation Xrotation Yrotation
                JOINT rThumb2
                {
                  OFFSET -3.37035 -0.52449 3.41376
                  CHANNELS 3 Zrotation Xrotation Yrotation
                  End Site
                  {
                    OFFSET -1.78271 -1.18214 1.43049
                  }
                }
              }
              JOINT rIndex1
              {
                OFFSET -7.75947 0.938293 5.60832
                CHANNELS 3 Zrotation Xrotation Yrotation
                JOINT rIndex2
                {
                  OFFSET -2.54057 -0.884171 1.56538
                  CHANNELS 3 Zrotation Xrotation Yrotation
                  End Site
                  {
                    OFFSET -1.62519 -0.234802 1.16502
                  }
                }
              }
              JOINT rMid1
              {
                OFFSET -8.24714 1.18213 3.41376
                CHANNELS 3 Zrotation Xrotation Yrotation
                JOINT rMid2
                {
                  OFFSET -3.10165 -0.590103 1.0647
                  CHANNELS 3 Zrotation Xrotation Yrotation
                  End Site
                  {
                    OFFSET -2.48547 -0.328903 0.83742
                  }
                }
              }
              JOINT rRing1
              {
                OFFSET -8.82822 0.546677 1.51678
                CHANNELS 3 Zrotation Xrotation Yrotation
                JOINT rRing2
                {
                  OFFSET -2.60934 -0.819778 -0.0198488
                  CHANNELS 3 Zrotation Xrotation Yrotation
                  End Site
                  {
                    OFFSET -2.33842 -0.294052 0.168128
                  }
                }
              }
              JOINT rPinky1
              {
                OFFSET -8.27202 -0.0477905 -0.4584
                CHANNELS 3 Zrotation Xrotation Yrotation
                JOINT rPinky2
                {
                  OFFSET -1.82734 -0.647385 -0.700984
                  CHANNELS 3 Zrotation Xrotation Yrotation
                  End Site
                  {
                    OFFSET -1.69225 -0.51767 -0.607171
                  }
                }
              }
            }
          }
        }
      }
      JOINT lCollar
      {
        OFFSET 2.68224 19.2634 -4.8768
        CHANNELS 3 Zrotation Xrotation Yrotation
        JOINT lShldr
        {
          OFFSET 8.77824 -1.95073 1.46304
          CHANNELS 3 Zrotation Xrotation Yrotation
          JOINT lForeArm
          {
            OFFSET 28.1742 -1.7115 0.48768
            CHANNELS 3 Zrotation Xrotation Yrotation
            JOINT lHand
            {
              OFFSET 22.5879 0.773209 7.07136
              CHANNELS 3 Zrotation Xrotation Yrotation
              JOINT lThumb1
              {
                OFFSET 1.2192 -0.487915 3.41376
                CHANNELS 3 Zrotation Xrotation Yrotation
                JOINT lThumb2
                {
                  OFFSET 3.37035 -0.52449 3.41376
                  CHANNELS 3 Zrotation Xrotation Yrotation
                  End Site
                  {
                    OFFSET 1.78271 -1.18214 1.43049
                  }
                }
              }
              JOINT lIndex1
              {
                OFFSET 7.75947 0.938293 5.60832
                CHANNELS 3 Zrotation Xrotation Yrotation
                JOINT lIndex2
                {
                  OFFSET 2.54057 -0.884171 1.56538
                  CHANNELS 3 Zrotation Xrotation Yrotation
                  End Site
                  {
                    OFFSET 1.62519 -0.234802 1.16502
                  }
                }
              }
              JOINT lMid1
              {
                OFFSET 8.24714 1.18213 3.41376
                CHANNELS 3 Zrotation Xrotation Yrotation
                JOINT lMid2
                {
                  OFFSET 3.10165 -0.590103 1.0647
                  CHANNELS 3 Zrotation Xrotation Yrotation
                  End Site
                  {
                    OFFSET 2.48547 -0.328903 0.83742
                  }
                }
              }
              JOINT lRing1
              {
                OFFSET 8.82822 0.546677 1.51678
                CHANNELS 3 Zrotation Xrotation Yrotation
                JOINT lRing2
                {
                  OFFSET 2.60934 -0.819778 -0.0198488
                  CHANNELS 3 Zrotation Xrotation Yrotation
                  End Site
                  {
                    OFFSET 2.33842 -0.294052 0.168128
                  }
                }
              }
              JOINT lPinky1
              {
                OFFSET 8.27202 -0.0477905 -0.4584
                CHANNELS 3 Zrotation Xrotation Yrotation
                JOINT lPinky2
                {
                  OFFSET 1.82734 -0.647385 -0.700984
                  CHANNELS 3 Zrotation Xrotation Yrotation
                  End Site
                  {
                    OFFSET 1.69225 -0.51767 -0.607171
                  }
                }
              }
            }
          }
        }
      }
    }
  }
  JOINT rButtock
  {
    OFFSET -8.77824 4.35084 1.2192
    CHANNELS 3 Zrotation Xrotation Yrotation
    JOINT rThigh
    {
      OFFSET 0 -1.70687 -2.19456
      CHANNELS 3 Zrotation Xrotation Yrotation
      JOINT rShin
      {
        OFFSET 0 -36.8199 0.73152
        CHANNELS 3 Zrotation Xrotation Yrotation
        JOINT rFoot
        {
          OFFSET 0.73152 -45.1104 -5.12064
          CHANNELS 3 Zrotation Xrotation Yrotation
          End Site
          {
            OFFSET -1.1221 -3.69964 12.103
          }
        }
      }
    }
  }
  JOINT lButtock
  {
    OFFSET 8.77824 4.35084 1.2192
    CHANNELS 3 Zrotation Xrotation Yrotation
    JOINT lThigh
    {
      OFFSET 0 -1.70687 -2.19456
      CHANNELS 3 Zrotation Xrotation Yrotation
      JOINT lShin
      {
        OFFSET 0 -36.8199 0.73152
        CHANNELS 3 Zrotation Xrotation Yrotation
        JOINT lFoot
        {
          OFFSET -0.73152 -45.1104 -5.12064
          CHANNELS 3 Zrotation Xrotation Yrotation
          End Site
          {
            OFFSET 1.1221 -3.69964 12.103
          }
        }
      }
    }
  }
}
MOTION
Frames:	5
Frame Time:	0.00833333
-0.518592 115.869 28.3021 -18.7704 -26.8222 31.3382 18.5937 -20.4057 26.4938 -2.27775 -1.8112 5.85876 -3.22001 3.48577 -1.95143 5.98887 3.14924 -3.34544 -0.0 0.0 0.0 -0.0 0.0 0.0 -1.0201e-14 1.53412e-13 6.68799e-13 6.96413 9.31889 17.9062 -14.27 -7.17723 26.0939 -0.00400081 1.83907 0.258545 -2.61056e-09 3.5162e-09 1.12923e-09 -4.50737e-09 6.07579e-09 1.95454e-09 -2.61055e-09 3.5162e-09 1.12922e-09 7.73091 5.47488 0.417314 -2.61056e-09 3.5162e-09 1.12923e-09 2.90554 0.965183 0.102902 -2.61056e-09 3.5162e-09 1.12924e-09 10.2786 0.731801 0.0259123 -2.61057e-09 3.5162e-09 1.12925e-09 2.22167 -0.733487 -0.20892 -1.03925e-14 1.5341e-13 6.68569e-13 -1.85727 -5.34881 29.9692 16.9993 -9.64884 -31.8139 0.361592 -17.1726 2.48478 -1.25279e-10 1.01794e-09 1.40287e-09 -2.32385e-10 1.75877e-09 2.42386e-09 -1.25285e-10 1.01794e-09 1.40288e-09 -7.73091 5.47488 -0.417314 -1.25279e-10 1.01794e-09 1.40287e-09 -2.90554 0.965183 -0.102902 -1.25283e-10 1.01794e-09 1.40288e-09 -10.2786 0.731801 -0.0259123 -1.2527e-10 1.01794e-09 1.40287e-09 -2.22167 -0.733487 0.20892 -2.03217e-16 0.0 -3.88251e-19 -7.62966 10.7625 -0.770352 -0.229839 37.0512 1.09664 1.76751 49.3122 -2.83004 2.03217e-16 0.0 3.88251e-19 105.289 -61.1763 86.4173 0.45095 35.2101 0.649394 -4.94514 30.085 11.4241
-0.633867 115.697 30.7068 -19.238 -26.8861 30.8338 19.9057 -19.6101 26.8334 -2.50964 -2.1009 5.89429 -3.23423 3.8329 -1.95001 5.54652 3.45929 -3.36393 -0.0 0.0 0.0 -0.0 0.0 0.0 5.45165e-15 3.48612e-13 6.38221e-13 8.05452 8.2615 15.6801 -13.9396 -6.90878 25.4271 -0.00265105 1.47987 0.208024 -3.078e-09 4.08944e-09 1.4383e-09 -5.31423e-09 7.06442e-09 2.49053e-09 -3.078e-09 4.08944e-09 1.43829e-09 7.73091 5.47488 0.417314 -3.078e-09 4.08944e-09 1.4383e-09 2.90554 0.965183 0.102902 -3.078e-09 4.08944e-09 1.4383e-09 10.2786 0.731801 0.0259123 -3.07801e-09 4.08945e-09 1.43831e-09 2.22167 -0.733487 -0.20892 5.33122e-15 3.48612e-13 6.38009e-13 -2.02918 -5.99269 32.0918 16.8464 -9.49663 -31.4835 0.463463 -19.1699 2.79746 -5.84188e-10 8.89498e-10 1.43318e-09 -1.02756e-09 1.53709e-09 2.47083e-09 -5.84194e-10 8.89493e-10 1.43319e-09 -7.73091 5.47488 -0.417314 -5.84188e-10 8.89494e-10 1.43318e-09 -2.90554 0.965183 -0.102902 -5.84192e-10 8.89494e-10 1.43319e-09 -10.2786 0.731801 -0.0259123 -5.84178e-10 8.89495e-10 1.43318e-09 -2.22167 -0.733487 0.20892 -2.03217e-16 0.0 -3.88251e-19 -7.99382 10.8625 -1.21562 -0.27414 39.3777 1.10517 2.4332 49.6674 -3.76657 2.03217e-16 0.0 3.88251e-19 101.231 -61.3747 81.2763 0.44136 33.8217 0.761744 -6.00286 30.7003 13.5147
-0.811648 115.43 33.0301 -19.9929 -26.6448 30.5521 21.2668 -18.9107 27.1344 -2.7854 -2.205 5.91767 -3.27729 4.19741 -1.93539 5.31431 3.71096 -3.35542 -0.0 0.0 0.0 -0.0 0.0 0.0 1.0277e-14 4.66348e-13 6.17226e-13 9.04245 7.28294 13.4992 -13.67 -6.69124 24.8925 -0.00153815 1.11979 0.157397 -3.33161e-09 4.21306e-09 1.73853e-09 -5.7519e-09 7.27654e-09 3.01036e-09 -3.33161e-09 4.21306e-09 1.73853e-09 7.73091 5.47488 0.417314 -3.33161e-09 4.21306e-09 1.73853e-09 2.90554 0.965183 0.102902 -3.33161e-09 4.21306e-09 1.73854e-09 10.2786 0.731801 0.0259123 -3.33162e-09 4.21306e-09 1.73854e-09 2.22167 -0.733487 -0.20892 1.01984e-14 4.66349e-13 6.17028e-13 -2.04405 -6.82975 34.0917 16.6638 -9.31875 -31.0866 0.545258 -20.5083 3.01339 -9.05162e-10 8.01923e-10 1.4649e-09 -1.58431e-09 1.38643e-09 2.52214e-09 -9.05169e-10 8.01917e-10 1.46491e-09 -7.73091 5.47488 -0.417314 -9.05162e-10 8.01917e-10 1.4649e-09 -2.90554 0.965183 -0.102902 -9.05166e-10 8.01917e-10 1.46491e-09 -10.2786 0.731801 -0.0259123 -9.05152e-10 8.01919e-10 1.4649e-09 -2.22167 -0.733487 0.20892 -2.03217e-16 0.0 -3.88251e-19 -8.22981 10.9097 -1.55523 -0.328128 41.8092 1.12098 3.16769 50.0383 -4.78689 2.03217e-16 0.0 3.88251e-19 97.1701 -61.3337 76.376 0.434546 32.5459 0.861297 -6.79469 31.2933 14.9382
-1.02853 115.105 35.3311 -20.9701 -26.3568 30.4231 22.7825 -18.3217 27.3832 -3.15673 -1.99984 5.92216 -3.36267 4.57105 -1.89309 5.40956 3.84351 -3.28829 -0.0 0.0 0.0 -0.0 0.0 0.0 1.28097e-15 4.64046e-13 6.10909e-13 9.97426 6.27185 11.3893 -13.4473 -6.51365 24.4553 -0.00160415 0.837119 0.117636 -3.25277e-09 3.39224e-09 1.97172e-09 -5.61479e-09 5.85561e-09 3.41261e-09 -3.25276e-09 3.39225e-09 1.97171e-09 7.73091 5.47488 0.417314 -3.25277e-09 3.39224e-09 1.97172e-09 2.90554 0.965183 0.102902 -3.25276e-09 3.39224e-09 1.97172e-09 10.2786 0.731801 0.0259123 -3.25278e-09 3.39225e-09 1.97173e-09 2.22167 -0.733487 -0.20892 1.19692e-15 4.64047e-13 6.10715e-13 -1.80014 -8.05961 35.9889 16.433 -9.09811 -30.5864 0.56847 -20.8306 3.06681 -1.01673e-09 7.27197e-10 1.52384e-09 -1.78027e-09 1.25917e-09 2.62391e-09 -1.01673e-09 7.27192e-10 1.52385e-09 -7.73091 5.47488 -0.417314 -1.01673e-09 7.27191e-10 1.52384e-09 -2.90554 0.965183 -0.102902 -1.01673e-09 7.27191e-10 1.52385e-09 -10.2786 0.731801 -0.0259123 -1.01672e-09 7.27194e-10 1.52384e-09 -2.22167 -0.733487 0.20892 -2.03217e-16 0.0 -3.88251e-19 -8.25739 10.9143 -1.74382 -0.392818 44.3695 1.14555 3.96155 50.4559 -5.87133 2.03217e-16 0.0 3.88251e-19 93.3017 -61.0504 71.9817 0.427453 31.3972 0.943753 -7.12832 31.9201 15.3303
-1.23998 114.729 37.6903 -21.8532 -26.1502 30.1705 24.3907 -17.7694 27.5533 -3.61003 -1.60093 5.90385 -3.47249 4.95505 -1.83742 5.71867 3.9028 -3.19362 -0.0 0.0 0.0 -0.0 0.0 0.0 -1.94119e-14 3.87157e-13 6.0565e-13 10.8742 5.19026 9.31452 -13.2646 -6.37134 24.0953 -0.00236369 0.587431 0.0824992 -2.90417e-09 1.70857e-09 2.16582e-09 -5.01122e-09 2.94205e-09 3.74604e-09 -2.90416e-09 1.70857e-09 2.16582e-09 7.73091 5.47488 0.417314 -2.90417e-09 1.70857e-09 2.16583e-09 2.90554 0.965183 0.102902 -2.90416e-09 1.70857e-09 2.16583e-09 10.2786 0.731801 0.0259123 -2.90418e-09 1.70857e-09 2.16584e-09 2.22167 -0.733487 -0.20892 -1.95264e-14 3.87158e-13 6.05458e-13 -1.32305 -9.51502 37.795 16.1588 -8.83883 -30.0008 0.549814 -20.5078 3.01482 -1.04011e-09 5.82222e-10 1.62642e-09 -1.82486e-09 1.01084e-09 2.80311e-09 -1.04011e-09 5.82217e-10 1.62644e-09 -7.73091 5.47488 -0.417314 -1.04011e-09 5.82217e-10 1.62642e-09 -2.90554 0.965183 -0.102902 -1.04011e-09 5.82217e-10 1.62643e-09 -10.2786 0.731801 -0.0259123 -1.0401e-09 5.82221e-10 1.62642e-09 -2.22167 -0.733487 0.20892 -2.03217e-16 0.0 -3.88251e-19 -8.11896 10.9012 -1.84993 -0.468824 47.0577 1.17858 4.84816 50.9136 -7.06286 2.03217e-16 0.0 3.88251e-19 89.5105 -60.6578 67.8718 0.420012 30.3301 1.01762 -7.15998 32.5567 15.0919
